<svg xmlns="http://www.w3.org/2000/svg" viewBox="0 0 900 520" role="img" aria-label="Secure systems dashboard preview"><defs><linearGradient id="bg" x1="0" y1="0" x2="1" y2="1"><stop stop-color="#101225"/><stop offset="1" stop-color="#04050f"/></linearGradient><linearGradient id="g" x1="0" y1="0" x2="1" y2="1"><stop stop-color="#00E5FF"/><stop offset="1" stop-color="#7B2FBE"/></linearGradient></defs><rect width="900" height="520" rx="42" fill="url(#bg)"/><circle cx="720" cy="110" r="160" fill="#7B2FBE" opacity=".22"/><circle cx="190" cy="380" r="190" fill="#00E5FF" opacity=".16"/><rect x="58" y="58" width="784" height="404" rx="28" fill="#ffffff" opacity=".055" stroke="#ffffff" stroke-opacity=".14"/><path d="M450 112 586 168v92c0 90-55 152-136 184-81-32-136-94-136-184v-92l136-56Z" fill="url(#g)" opacity=".9"/><path d="M392 254h116v92H392z" fill="#04050f" opacity=".86"/><path d="M414 254v-35c0-51 72-51 72 0v35" fill="none" stroke="#04050f" stroke-width="28" stroke-linecap="round"/><g fill="#00E5FF"><circle cx="148" cy="148" r="8"/><circle cx="188" cy="148" r="8"/><circle cx="228" cy="148" r="8"/></g><g stroke="#AAF8FF" stroke-opacity=".75" stroke-width="6" stroke-linecap="round"><path d="M108 395h156"/><path d="M108 426h248"/><path d="M636 146h112"/><path d="M636 180h72"/></g></svg>